# Blender v2.93.2 OBJ File: 'processing.blend'
# www.blender.org
o PlaneLowPolyFromScan_Plane.004
v 1.139408 -0.375623 -0.289964
v 1.139408 -0.375623 -1.132250
v -1.641379 -0.375624 -0.311665
v -1.641379 -0.375624 -1.132250
v 1.139408 -0.375623 -0.289964
v 1.139408 -0.375623 -0.289964
v 1.139408 -0.375623 -0.289964
v -1.120765 -0.375624 -0.009287
v 0.022780 -0.375623 -0.015936
v 0.581383 -0.375623 -0.013284
v -0.535869 -0.375623 -0.015867
v -1.120765 -0.375624 -0.009287
v -0.535869 -0.375623 -0.015867
v -1.120765 -0.375624 -0.009287
v -0.535869 -0.375623 0.922526
v -1.120765 -0.375624 0.929106
v 0.022780 -0.375623 0.910231
v 0.581383 -0.375623 0.912883
v -1.641379 0.004547 -0.311665
v -1.120765 0.004547 -0.009287
v 1.139408 0.004547 -0.289964
v 0.022780 0.004547 -0.015936
v 0.581383 0.004547 -0.013284
v -0.535869 0.004547 -0.015867
v -0.535869 0.004547 -0.015867
v -1.120765 0.004547 -0.009287
v -1.119961 0.002590 0.955396
v 0.586515 -0.000564 0.952017
v 0.578435 0.010602 0.429363
v 0.581383 0.004547 -0.013284
v 0.578435 0.010602 0.429363
v 0.997667 0.007574 0.244703
v 0.590635 0.217327 0.975822
v 0.578435 0.223382 0.429363
v 0.578435 0.223382 0.429363
v 0.997667 0.220354 0.244703
v 0.902139 0.223638 0.545262
v 0.741088 0.220482 0.913795
v 0.022780 0.226768 0.978655
v 0.022780 0.004547 0.751512
v -0.535869 0.004547 0.748289
v -0.535869 0.226768 0.975432
v -1.536455 0.004547 0.236072
v -1.113517 0.226768 0.975432
v -1.120765 0.004547 0.452746
v -1.536455 0.228900 0.236072
v -1.120765 0.228900 0.452746
v -1.440956 0.228190 0.512052
v -1.265859 0.227479 0.920529
v 0.469765 0.537370 1.064010
v 0.022780 0.530789 1.066843
v -0.535869 0.530789 1.063620
v -1.019423 0.521583 1.063620
v 0.650273 0.426437 1.027759
v 0.902139 0.416039 0.545262
v 0.997667 0.403218 0.244703
v 1.139408 0.399716 -0.289964
v -1.215753 0.411421 0.994527
v -1.536455 0.412075 0.236072
v -1.440956 0.411364 0.512052
v -1.641379 0.410991 -0.311665
v 0.022780 0.530789 1.066843
v -0.535869 0.530789 1.063620
v -1.019423 0.521583 1.063620
v 0.416235 0.566454 1.004819
v 0.027539 0.564469 0.986329
v -0.549427 0.560219 0.976195
v -0.973216 0.564133 1.017661
v 0.209649 0.649705 1.039796
v 0.022780 0.650644 1.038460
v -0.535869 0.650644 1.035237
v -0.696398 0.655580 1.020968
v 0.517195 0.532098 1.055349
v 0.595859 0.493480 1.030280
v 0.413606 0.799173 0.901260
v 0.492269 0.760554 0.876192
v 0.322532 0.973014 0.764521
v 0.382728 0.991294 0.711883
v -1.096424 0.515315 1.039631
v -1.192217 0.465100 1.007150
v -0.990309 0.768264 0.895902
v -1.086143 0.755184 0.839902
v -0.855442 0.991004 0.717375
v -0.959886 0.998879 0.653397
v 0.726356 0.728325 0.476985
v 0.913178 0.738067 0.094091
v 1.027319 0.734566 -0.289964
v -1.415965 0.711398 0.266731
v -1.344619 0.714178 0.452155
v -1.552563 0.722394 -0.281006
v 0.535955 0.974925 0.404998
v 0.662600 1.089280 0.094092
v 0.802616 1.155961 -0.289964
v -1.201356 1.071298 0.142867
v -1.152565 1.002260 0.372749
v -1.303474 1.151038 -0.311665
v 0.096629 1.057942 0.430682
v 0.145229 1.110607 0.071423
v 0.203101 1.155961 -0.289964
v -0.674509 1.107471 0.075606
v -0.645486 1.075027 0.397720
v -0.697986 1.162013 -0.284422
v 0.035773 1.308936 0.368971
v 0.076130 1.403036 0.070646
v 0.124186 1.488183 -0.229446
v -0.604572 1.399901 0.074120
v -0.580472 1.326021 0.341600
v -0.624067 1.494234 -0.224844
v -0.226096 0.960500 1.029957
v -0.383861 0.964369 1.021992
v -0.363551 0.511066 1.589260
v -0.275270 0.509397 1.592696
v -0.359894 0.924989 1.071819
v -0.251943 0.922948 1.076021
v 0.526421 0.544418 1.067941
v 0.605085 0.505800 1.042873
v 0.422832 0.811493 0.913853
v 0.501496 0.772875 0.888784
v 0.331759 0.985334 0.777113
v 0.391955 1.003614 0.724476
v -0.226483 0.989521 1.053202
v -0.384249 0.993390 1.045236
v -0.360282 0.954010 1.095063
v -0.363938 0.540087 1.612505
v -0.252331 0.951969 1.099265
v -0.275658 0.538418 1.615941
v -1.203568 0.481456 1.023597
v -1.107775 0.531671 1.056077
v -1.097494 0.771540 0.856349
v -1.001660 0.784620 0.912349
v -0.971237 1.015235 0.669844
v -0.866793 1.007361 0.733822
vn -0.0000 1.0000 0.0000
vn 0.0000 0.0000 1.0000
vn 1.0000 0.0000 -0.0000
vn -1.0000 0.0000 0.0000
vn -1.0000 0.0000 -0.0067
vn -0.4442 0.0000 -0.8959
vn -0.0001 0.0000 -1.0000
vn 1.0000 -0.0020 -0.0016
vn 0.5022 0.0000 -0.8647
vn -0.0032 1.0000 -0.0065
vn -0.4031 0.0000 -0.9152
vn -0.9999 0.0000 0.0155
vn 0.0028 0.9999 -0.0100
vn -0.0032 0.1087 -0.9941
vn 0.0040 0.7148 -0.6993
vn 0.0000 0.0890 -0.9960
vn 0.4622 0.0000 -0.8868
vn 1.0000 0.0000 -0.0016
vn -0.0018 1.0000 0.0025
vn -0.0000 0.2866 -0.9581
vn 0.0055 0.2786 -0.9604
vn -0.0004 0.2655 -0.9641
vn 0.2136 0.2168 -0.9526
vn -0.3667 0.3214 -0.8731
vn -0.8795 -0.1354 -0.4562
vn -0.9530 0.0000 -0.3029
vn -0.9666 0.0000 -0.2563
vn 0.9191 0.0000 -0.3940
vn 0.9450 0.0000 -0.3270
vn 0.9821 0.0000 -0.1881
vn 0.0141 -0.7408 -0.6716
vn 0.0022 -0.9226 -0.3858
vn 0.0103 -0.8937 -0.4485
vn -0.0899 0.3064 -0.9477
vn 0.0107 0.5456 -0.8380
vn 0.0396 0.4689 -0.8824
vn -0.1757 0.0356 -0.9838
vn 0.8169 -0.0226 -0.5764
vn 0.2905 0.0803 -0.9535
vn 0.8116 -0.0236 0.5837
vn -0.9105 -0.3373 -0.2392
vn -0.8227 -0.5155 -0.2395
vn 0.9502 -0.2532 -0.1815
vn 0.8926 -0.3276 -0.3097
vn -0.8544 -0.4556 -0.2498
vn -0.6884 -0.6342 -0.3520
vn 0.8055 -0.5533 -0.2120
vn 0.7600 -0.5848 -0.2836
vn -0.0000 -0.9853 -0.1711
vn -0.0231 -0.9352 -0.3534
vn -0.1879 -0.9813 -0.0415
vn 0.0490 -0.9596 -0.2772
vn 0.0259 -0.9836 -0.1784
vn 0.0282 -0.9557 -0.2930
vn 0.1466 -0.9828 -0.1125
vn 0.0595 -0.9743 -0.2170
vn -0.0106 -0.9654 -0.2607
vn -0.9478 -0.2711 -0.1680
vn 0.9678 -0.2319 -0.0982
vn -0.9569 -0.2266 -0.1817
vn 0.9553 -0.2728 -0.1136
vn 0.0379 -0.2299 -0.9725
vn -0.0095 -0.9616 -0.2743
vn 0.0000 0.1792 -0.9838
vn 0.0413 0.1675 -0.9850
vn -0.0123 -0.9973 -0.0725
vn -0.9355 -0.2284 0.2695
vn -0.4901 -0.5704 -0.6592
vn -0.5009 -0.6471 -0.5748
vn -0.8149 0.0182 0.5793
vn -0.8176 0.0242 0.5753
vn 0.8149 -0.0182 -0.5793
vn 0.9169 -0.2419 0.3173
vn 0.9993 -0.0139 0.0340
vn -0.9999 -0.0047 -0.0108
vn 0.0098 -0.7777 -0.6285
vn 0.0095 -0.7809 -0.6246
vn -0.8307 -0.0170 -0.5564
vn -0.8252 -0.0047 -0.5648
vn 0.8162 -0.0143 0.5775
vn 0.4375 -0.6784 -0.5902
vn 0.5142 -0.5617 -0.6481
vn -1.0000 -0.0076 0.0000
vn -0.9998 0.0120 0.0157
vn 0.0012 0.9999 -0.0137
vn -0.9996 0.0164 0.0225
vn -0.0163 0.9998 0.0114
vn -0.0033 1.0000 0.0071
vn 0.0047 0.1037 -0.9946
vn -0.0014 0.1129 -0.9936
vn 0.0006 0.0875 -0.9962
vn -0.0112 0.0694 -0.9975
vn 0.9995 -0.0275 -0.0140
vn 0.0032 1.0000 0.0040
vn -0.0016 1.0000 0.0031
vn -0.0053 0.2786 -0.9604
vn -0.0102 0.2786 -0.9604
vn 0.3271 0.2746 -0.9042
vn -0.0397 0.2515 -0.9670
vn -0.9163 0.0000 -0.4004
vn 0.9035 -0.0765 -0.4217
vn -0.0394 -0.9488 -0.3133
vn 0.0126 -0.9471 -0.3208
vn 0.0230 -0.9228 -0.3846
vn 0.0911 0.5348 -0.8400
vn 0.0049 0.5178 -0.8555
vn 0.0087 0.5179 -0.8554
vn -0.4242 -0.3123 -0.8500
vn 0.2683 0.1075 -0.9573
vn -0.9134 -0.3058 -0.2687
vn -0.8226 -0.3926 -0.4114
vn 0.9100 -0.3424 -0.2338
vn 0.8777 -0.3450 -0.3325
vn -0.7564 -0.5397 -0.3695
vn -0.7147 -0.5099 -0.4787
vn 0.8233 -0.4979 -0.2723
vn 0.7564 -0.5647 -0.3301
vn -0.0352 -0.9909 -0.1300
vn -0.1925 -0.9668 -0.1678
vn 0.0483 -0.9871 -0.1527
vn 0.1466 -0.9828 -0.1122
vn -0.0051 -0.9699 -0.2433
vn -0.9534 -0.2258 -0.2002
vn 0.9730 -0.1941 -0.1247
vn -0.9596 -0.1901 -0.2076
vn 0.9613 -0.2307 -0.1503
vn 0.0369 -0.2272 -0.9732
vn -0.0130 -0.9531 -0.3024
vn 0.0031 -0.9638 -0.2665
vn 0.0029 -0.9536 -0.3011
vn -0.0218 -0.9983 -0.0536
vn -0.3500 -0.6855 -0.6384
vn 0.0123 -0.7816 -0.6237
vn 0.3316 -0.7041 -0.6280
vn 0.4694 -0.5768 -0.6686
s off
f 2//1 3//1 1//1
f 3//1 11//1 9//1
f 12//2 13//2 11//2
f 14//1 15//1 13//1
f 17//1 10//1 9//1
f 39//3 17//3 40//3
f 41//4 13//4 15//4
f 29//5 23//5 10//5
f 23//6 5//6 10//6
f 24//7 9//7 11//7
f 45//8 27//8 16//8
f 19//9 8//9 3//9
f 29//2 30//2 23//2
f 30//10 32//10 21//10
f 31//11 36//11 32//11
f 28//12 34//12 29//12
f 35//2 34//2 33//2
f 37//13 36//13 35//13
f 39//14 33//14 28//14
f 22//1 41//1 40//1
f 42//15 40//15 41//15
f 9//3 40//3 17//3
f 42//4 41//4 15//4
f 27//16 44//16 42//16
f 43//1 26//1 19//1
f 46//17 45//17 43//17
f 47//18 27//18 45//18
f 49//19 47//19 48//19
f 53//20 42//20 44//20
f 52//21 39//21 42//21
f 39//22 50//22 33//22
f 44//23 58//23 53//23
f 33//24 54//24 38//24
f 55//25 38//25 54//25
f 56//26 37//26 55//26
f 36//27 57//27 21//27
f 60//28 49//28 48//28
f 46//29 60//29 48//29
f 61//30 59//30 46//30
f 53//2 63//2 52//2
f 52//2 62//2 51//2
f 51//2 62//2 50//2
f 68//31 63//31 64//31
f 63//32 66//32 62//32
f 62//33 65//33 50//33
f 72//34 67//34 68//34
f 71//35 66//35 67//35
f 66//36 69//36 65//36
f 73//37 54//37 50//37
f 120//38 76//38 78//38
f 58//39 79//39 53//39
f 132//40 81//40 83//40
f 86//41 57//41 56//41
f 85//42 56//42 55//42
f 90//43 59//43 61//43
f 88//44 60//44 59//44
f 86//45 93//45 87//45
f 91//46 86//46 85//46
f 90//47 94//47 88//47
f 88//48 95//48 89//48
f 92//49 99//49 93//49
f 91//50 98//50 92//50
f 91//51 78//51 97//51
f 78//52 77//52 97//52
f 102//53 94//53 96//53
f 100//54 95//54 94//54
f 101//55 84//55 95//55
f 84//56 101//56 83//56
f 97//57 83//57 101//57
f 103//58 98//58 97//58
f 102//59 106//59 100//59
f 104//60 99//60 98//60
f 100//61 107//61 101//61
f 101//62 103//62 97//62
f 108//63 105//63 104//63
f 99//64 105//64 93//64
f 102//65 96//65 108//65
f 109//66 83//66 77//66
f 113//67 122//67 110//67
f 73//68 76//68 74//68
f 75//69 78//69 76//69
f 115//70 75//70 73//70
f 75//71 119//71 77//71
f 76//72 116//72 74//72
f 109//73 125//73 114//73
f 125//74 112//74 114//74
f 111//75 123//75 113//75
f 113//76 109//76 114//76
f 114//77 111//77 113//77
f 127//78 82//78 80//78
f 82//79 131//79 84//79
f 81//80 128//80 79//80
f 84//81 81//81 82//81
f 82//82 79//82 80//82
f 2//1 4//1 3//1
f 3//2 8//2 12//2
f 3//1 12//1 11//1
f 10//1 5//1 9//1
f 5//1 3//1 9//1
f 12//2 14//2 13//2
f 14//1 16//1 15//1
f 17//1 18//1 10//1
f 41//4 25//4 13//4
f 10//83 18//83 29//83
f 18//84 28//84 29//84
f 23//6 21//6 5//6
f 24//7 22//7 9//7
f 16//3 14//3 45//3
f 14//3 26//3 45//3
f 19//9 20//9 8//9
f 29//2 31//2 30//2
f 30//85 31//85 32//85
f 31//11 35//11 36//11
f 28//86 33//86 34//86
f 35//2 36//2 34//2
f 35//87 33//87 38//87
f 38//88 37//88 35//88
f 18//89 17//89 28//89
f 17//90 39//90 28//90
f 22//1 25//1 41//1
f 42//15 39//15 40//15
f 9//3 22//3 40//3
f 42//91 15//91 27//91
f 15//92 16//92 27//92
f 43//1 45//1 26//1
f 46//17 47//17 45//17
f 47//93 44//93 27//93
f 44//94 47//94 49//94
f 47//95 46//95 48//95
f 53//96 52//96 42//96
f 52//21 51//21 39//21
f 39//97 51//97 50//97
f 44//98 49//98 58//98
f 33//99 50//99 54//99
f 55//100 37//100 38//100
f 56//26 36//26 37//26
f 21//27 32//27 36//27
f 36//27 56//27 57//27
f 60//101 58//101 49//101
f 46//29 59//29 60//29
f 43//30 19//30 46//30
f 19//30 61//30 46//30
f 53//2 64//2 63//2
f 52//2 63//2 62//2
f 68//102 67//102 63//102
f 63//103 67//103 66//103
f 62//104 66//104 65//104
f 72//105 71//105 67//105
f 71//106 70//106 66//106
f 66//107 70//107 69//107
f 73//108 74//108 54//108
f 120//38 118//38 76//38
f 58//109 80//109 79//109
f 132//40 130//40 81//40
f 86//110 87//110 57//110
f 85//111 86//111 56//111
f 90//112 88//112 59//112
f 88//113 89//113 60//113
f 86//114 92//114 93//114
f 91//115 92//115 86//115
f 90//116 96//116 94//116
f 88//117 94//117 95//117
f 92//118 98//118 99//118
f 91//119 97//119 98//119
f 102//120 100//120 94//120
f 100//121 101//121 95//121
f 97//122 77//122 83//122
f 103//123 104//123 98//123
f 102//124 108//124 106//124
f 104//125 105//125 99//125
f 100//126 106//126 107//126
f 101//127 107//127 103//127
f 104//128 103//128 107//128
f 107//129 106//129 104//129
f 106//130 108//130 104//130
f 109//131 110//131 83//131
f 113//67 123//67 122//67
f 73//68 75//68 76//68
f 75//132 77//132 78//132
f 115//70 117//70 75//70
f 75//71 117//71 119//71
f 76//72 118//72 116//72
f 109//73 121//73 125//73
f 125//74 126//74 112//74
f 111//75 124//75 123//75
f 113//133 110//133 109//133
f 114//77 112//77 111//77
f 127//78 129//78 82//78
f 82//79 129//79 131//79
f 81//80 130//80 128//80
f 84//134 83//134 81//134
f 82//135 81//135 79//135
l 1 5
l 1 6
l 6 7
l 7 5
